<?xml version="1.0" encoding="UTF-8"?>
<svg version="1.1" xmlns="http://www.w3.org/2000/svg" width="1255" height="848">
<path d="M0 0 C414.15 0 828.3 0 1255 0 C1255 279.84 1255 559.68 1255 848 C840.85 848 426.7 848 0 848 C0 568.16 0 288.32 0 0 Z " fill="#918E86" transform="translate(0,0)"/>
<path d="M0 0 C414.15 0 828.3 0 1255 0 C1255 279.84 1255 559.68 1255 848 C840.85 848 426.7 848 0 848 C0 568.16 0 288.32 0 0 Z M338.21214014 41.15654701 C337.61213077 42.06905624 337.61213077 42.06905624 337 43 C335.99248664 44.17818871 334.97286709 45.34621198 333.9375 46.5 C333.08091797 47.49386719 333.08091797 47.49386719 332.20703125 48.5078125 C329.24202305 51.85591026 326.18389142 55.11277538 323.125 58.375 C318.44549155 63.36753749 313.81632102 68.3959358 309.25390625 73.49609375 C302.77016256 80.69900485 296.14839118 87.7773306 289.52416992 94.85083008 C284.92616935 99.76176117 280.35789464 104.67431698 275.97265625 109.77734375 C272.44857828 113.74803754 268.79130957 117.5973809 265.1484375 121.45898438 C264.57222656 122.07193359 263.99601563 122.68488281 263.40234375 123.31640625 C262.89179443 123.85724854 262.38124512 124.39809082 261.85522461 124.95532227 C261.24300049 125.63006592 260.63077637 126.30480957 260 127 C259.51498992 127.42673256 259.02997984 127.85346512 258.53027248 128.29312897 C254.86730459 131.84807145 253.57794404 134.54485941 253.2784729 139.66319275 C253.26116023 141.92639592 253.27685262 144.19000112 253.31884766 146.45288086 C253.3179715 147.69260651 253.31709534 148.93233215 253.31619263 150.20962524 C253.31964524 153.59220714 253.34962992 156.97256401 253.39163637 160.3547523 C253.42926667 163.8954155 253.43267833 167.43611165 253.43978882 170.97694397 C253.45840189 177.67415384 253.50758988 184.37077268 253.56788576 191.06772286 C253.63506205 198.69522586 253.66796766 206.3227578 253.69805837 213.9504832 C253.76069298 229.63399718 253.8661578 245.31692223 254 261 C253.31953959 260.98893848 252.63907919 260.97787697 251.93799877 260.96648026 C235.34419853 260.70091433 218.75107535 260.50262922 202.15564251 260.37825394 C194.12991991 260.31649981 186.10561974 260.23238799 178.08081055 260.09472656 C171.08232679 259.97472894 164.08487341 259.89761199 157.08538944 259.87093806 C153.38205586 259.85535491 149.68166848 259.81902404 145.97928429 259.73123932 C130.13558439 258.52051313 130.13558439 258.52051313 115.83242798 263.56237793 C112.94118939 266.35066223 110.98175048 269.50995385 109 273 C107.56992562 274.81430229 106.11535267 276.60987834 104.625 278.375 C103.54992187 279.71111328 103.54992187 279.71111328 102.453125 281.07421875 C98.48413965 285.80792899 94.23310691 290.27326703 90.0078125 294.77734375 C87.15453222 297.82137013 84.38811991 300.92966877 81.6640625 304.08984375 C79.68459874 306.36204511 77.6541683 308.58459872 75.625 310.8125 C72.55253227 314.21083552 69.61557378 317.67590523 66.75 321.25 C63.17150282 325.67932868 59.39999306 329.85699569 55.5 334 C50.81175076 338.98139205 46.36346809 344.05099729 42.09765625 349.40234375 C40 352 40 352 36.91399193 354.53726292 C31.80076424 360.57891787 33.201184 369.53280399 33.2784729 377.00144958 C33.27585603 378.87190607 33.27060178 380.74236042 33.2629379 382.61280304 C33.24951839 387.75078082 33.27352541 392.88800851 33.30360627 398.02589071 C33.329505 403.5670598 33.32074965 409.10818622 33.31619263 414.6493988 C33.31304575 424.24925708 33.33187868 433.84887077 33.36561966 443.44866753 C33.41437163 457.32833816 33.4300073 471.20789046 33.43754761 485.08763743 C33.450681 507.60626382 33.49056357 530.12476162 33.54736328 552.64331055 C33.60247682 574.51862918 33.64497506 596.39391295 33.67041016 618.26928711 C33.67119931 618.9436797 33.67198847 619.61807229 33.67280154 620.31290102 C33.68071272 627.08548018 33.68836759 633.85805962 33.6958347 640.6306393 C33.75847235 697.42051752 33.86434187 754.21025216 34 811 C67.74836694 811.07147771 101.49673966 811.14001263 135.24511719 811.20629883 C135.90551844 811.2075962 136.5659197 811.20889357 137.24633312 811.21023025 C208.00877522 811.34916428 278.77121924 811.46906479 349.53375244 811.55046082 C351.10557396 811.55227367 352.67739547 811.55408654 354.24921698 811.55589943 C387.2421478 811.59389432 420.23508105 811.62921163 453.22801801 811.66143582 C469.80145727 811.67762595 486.37489598 811.6943306 502.94833424 811.71152174 C505.44837519 811.71411197 507.94841617 811.71668751 510.44845714 811.71926244 C548.94567879 811.75904233 587.44284701 811.80985699 625.94000244 811.89263916 C627.1815915 811.89530869 627.1815915 811.89530869 628.44826316 811.89803214 C641.79366196 811.92679298 655.13905869 811.9564799 668.48445518 811.98628973 C706.92323201 812.07213692 745.36196774 812.15113643 783.80083084 812.18481731 C784.59129511 812.18551327 785.38175937 812.18620923 786.1961771 812.18692627 C803.54879064 812.2020812 820.90140469 812.2137143 838.2540228 812.22201278 C845.23613394 812.22541386 852.21824477 812.22932192 859.20035553 812.23340416 C859.96451708 812.23383871 860.72867864 812.23427327 861.5159966 812.23472099 C886.13742682 812.24897458 910.75855178 812.30449743 935.3798588 812.38166871 C960.18200733 812.45921789 984.98385967 812.49628835 1009.78613251 812.47711184 C1013.21379239 812.47447181 1016.64145241 812.47229583 1020.06911278 812.47039986 C1020.74102982 812.47001141 1021.41294686 812.46962296 1022.10522503 812.46922275 C1033.39023949 812.46397399 1044.67447859 812.51032104 1055.9593518 812.57036806 C1065.77433377 812.61903611 1075.58858979 812.62068597 1085.40362144 812.58381358 C1091.00029331 812.56414318 1096.59487109 812.56519102 1102.19132027 812.62348137 C1107.28423551 812.67612486 1112.37342531 812.66879638 1117.46628375 812.61381968 C1119.29601584 812.60454152 1121.12602227 812.61702636 1122.95540311 812.65405818 C1133.56412376 812.97103853 1133.56412376 812.97103853 1142.66138557 808.19246139 C1145.30683286 805.52772836 1147.61673157 802.6774557 1149.81394744 799.63633422 C1151.60174248 797.1698076 1153.5587933 794.84640673 1155.5 792.5 C1156.2115625 791.613125 1156.923125 790.72625 1157.65625 789.8125 C1160.81737495 786.01915006 1164.18412305 782.43875584 1167.55859375 778.8359375 C1170.67568554 775.48883131 1173.63581113 772.06985859 1176.5 768.5 C1180.31994011 763.73891522 1184.38938819 759.28726975 1188.55859375 754.8359375 C1191.67568554 751.48883131 1194.63581113 748.06985859 1197.5 744.5 C1201.83064533 739.10637809 1206.48471546 734.07040499 1211.19921875 729.015625 C1214.55272848 725.41848902 1217.8142612 721.74655346 1221 718 C1221.84541162 717.16216634 1222.69082325 716.32433268 1223.56185341 715.46111012 C1226.85471913 711.47289131 1226.68898046 707.74426748 1226.60800171 702.74333191 C1226.6129794 701.82011164 1226.61795709 700.89689138 1226.62308562 699.94569474 C1226.63365045 696.8567915 1226.60851733 693.76922453 1226.58349609 690.68041992 C1226.58372281 688.4644356 1226.58613718 686.24845059 1226.59057617 684.0324707 C1226.59628379 678.01829556 1226.5709879 672.0046049 1226.53990126 665.99052215 C1226.51237338 659.70360355 1226.51236227 653.41668443 1226.50918579 647.12971497 C1226.49998254 636.57703584 1226.47261241 626.02451913 1226.43212891 615.47192383 C1226.39048201 604.60668582 1226.36218276 593.74153297 1226.35009766 582.8762207 C1226.34897533 581.87132231 1226.34897533 581.87132231 1226.34783034 580.84612294 C1226.34485622 578.15352743 1226.34191892 575.46093187 1226.33904406 572.76833625 C1226.32700768 561.79525054 1226.30516328 550.82218153 1226.2814641 539.84911561 C1226.2760959 537.345361 1226.27095993 534.84160588 1226.26605177 532.33785033 C1226.25178408 525.20642693 1226.23240929 518.0750561 1226.20457458 510.94367218 C1226.19682759 508.77842815 1226.19077688 506.61317732 1226.18649673 504.44792366 C1226.18031765 501.50582542 1226.16798427 498.56381932 1226.15390015 495.62174988 C1226.15315351 494.31906317 1226.15315351 494.31906317 1226.15239179 492.99005955 C1226.49757662 489.18694132 1226.49757662 489.18694132 1225 486 C1222.18052855 485.90208717 1219.38555375 485.87007301 1216.56565857 485.87974548 C1215.67050618 485.87889106 1214.77535379 485.87803663 1213.85307556 485.87715632 C1210.82968352 485.87549876 1207.80634599 485.88102737 1204.78295898 485.88647461 C1202.62520346 485.88675645 1200.46744785 485.88659881 1198.30969238 485.8860321 C1192.43183155 485.885744 1186.55399094 485.89164281 1180.67613482 485.89860606 C1174.54085056 485.90483745 1168.40556588 485.90544323 1162.27027893 485.90663147 C1150.64324568 485.90974542 1139.01622177 485.91795967 1127.38919264 485.92798096 C1114.15604883 485.93914012 1100.92290457 485.94465205 1087.68975723 485.94967639 C1060.45983296 485.96014223 1033.229917 485.9777429 1006 486 C1006.00092179 484.84648576 1006.00184359 483.69297152 1006.00279331 482.5045023 C1006.02442986 455.15041575 1006.04092983 427.79633013 1006.05106533 400.44223678 C1006.0523161 397.07876006 1006.05361042 393.71528334 1006.05493164 390.35180664 C1006.05519395 389.68217124 1006.05545626 389.01253584 1006.05572652 388.32260846 C1006.06008324 377.46598331 1006.06797079 366.60936343 1006.0771528 355.7527414 C1006.08648929 344.62098514 1006.0919807 333.48923068 1006.09408849 322.35747045 C1006.09539602 316.10151396 1006.09848451 309.84556944 1006.10573006 303.58961678 C1006.1124864 297.70875037 1006.11461775 291.82790094 1006.11310768 285.94703102 C1006.11338418 283.78178566 1006.11539158 281.61653978 1006.11920547 279.45129776 C1006.12413669 276.50889747 1006.12300041 273.56656238 1006.12025452 270.62416077 C1006.12316736 269.75550119 1006.1260802 268.88684161 1006.12908131 267.99185902 C1006.49137635 264.18840881 1006.49137635 264.18840881 1005 261 C1002.1679156 260.90208075 999.36020217 260.87007191 996.5276947 260.87974548 C995.63063812 260.87888947 994.73358154 260.87803345 993.80934143 260.87715149 C990.76992862 260.87548581 987.73056995 260.88103685 984.69116211 260.88647461 C982.48833245 260.88678069 980.28550269 260.88664789 978.08267307 260.88610935 C972.16132101 260.88588276 966.23998898 260.89169607 960.31864166 260.89871979 C954.77073602 260.9043972 949.22283536 260.90468195 943.67492676 260.90539551 C927.42911516 260.91065153 911.18330733 260.92461257 894.9375 260.9375 C840.5184375 260.9684375 840.5184375 260.9684375 785 261 C785 186.75 785 112.5 785 36 C706.79006542 35.79611036 706.79006542 35.79611036 628.58007812 35.65820312 C618.71365967 35.64536983 608.84724167 35.63225008 598.9808247 35.61831804 C597.64253387 35.61642916 596.30424303 35.61455056 594.96595217 35.61268238 C572.96517921 35.58188249 550.96457832 35.52623238 528.96388464 35.45993043 C507.07664888 35.39451946 485.1894822 35.35559904 463.30215269 35.34138054 C449.79138146 35.33176536 436.28098251 35.3013736 422.77032585 35.24458473 C413.51138624 35.20764433 404.2526397 35.19638541 394.99363171 35.20549036 C389.64783058 35.20998352 384.30268093 35.20299257 378.95699501 35.16556168 C374.0643803 35.13155272 369.17285651 35.12973904 364.28019208 35.15370774 C362.50885949 35.15667095 360.73745945 35.14774174 358.96626007 35.12581772 C347.24796874 34.61108831 347.24796874 34.61108831 338.21214014 41.15654701 Z " fill="#FAFAF2" transform="translate(0,0)"/>
<path d="M0 0 C145.2 0 290.4 0 440 0 C440 72.6 440 145.2 440 220 C294.8 220 149.6 220 0 220 C0 147.4 0 74.8 0 0 Z " fill="#DDDAD3" transform="translate(695,587)"/>
<path d="M0 0 C144.54 0 289.08 0 438 0 C438 72.93 438 145.86 438 221 C293.46 221 148.92 221 0 221 C0 148.07 0 75.14 0 0 Z " fill="#D2CEC6" transform="translate(477,362)"/>
<path d="M0 0 C143.22 0 286.44 0 434 0 C434 72.93 434 145.86 434 221 C290.78 221 147.56 221 0 221 C0 148.07 0 75.14 0 0 Z " fill="#C6C2B7" transform="translate(258,137)"/>
<path d="M0 0 C142.89 0 285.78 0 433 0 C433 72.6 433 145.2 433 220 C290.11 220 147.22 220 0 220 C0 147.4 0 74.8 0 0 Z " fill="#C2BEB4" transform="translate(258,587)"/>
<path d="M0 0 C71.28 0 142.56 0 216 0 C216 72.6 216 145.2 216 220 C144.72 220 73.44 220 0 220 C0 147.4 0 74.8 0 0 Z " fill="#A8A59C" transform="translate(38,587)"/>
<path d="M0 0 C1.78903903 -0.00611535 3.57806566 -0.0183925 5.36702603 -0.03624833 C10.25336321 -0.06738797 15.13536162 -0.01180833 20.02114618 0.05864453 C25.30044104 0.11933784 30.57950876 0.09862761 35.85905457 0.0880127 C44.99602145 0.08068617 54.1315843 0.12445465 63.26819801 0.20334244 C76.47780698 0.31732298 89.6867399 0.35360274 102.89678731 0.37117432 C124.33092395 0.40178401 145.76431293 0.49486726 167.19804382 0.62741089 C188.01376109 0.75599862 208.82927498 0.85505623 229.64530945 0.91452026 C231.57127898 0.92003746 231.57127898 0.92003746 233.53615699 0.92566611 C239.97777218 0.94393718 246.4193888 0.96162896 252.86100638 0.97903275 C306.26594237 1.12406976 359.67006691 1.37056802 413.07426453 1.68356323 C410.96239848 5.31703853 408.86691673 8.08639408 405.82426453 10.99606323 C402.39827474 14.34506448 399.19040848 17.77066126 396.07035828 21.40231323 C393.53964792 24.29455363 390.93573801 27.11431196 388.32426453 29.93356323 C387.80976746 30.48922974 387.29527039 31.04489624 386.7651825 31.61740112 C385.71711071 32.74909045 384.66893332 33.88068197 383.62065125 35.01217651 C375.64882221 43.62839716 367.76712043 52.32463278 359.93754578 61.07028198 C355.64722192 65.85356945 351.31587604 70.59506187 346.94926453 75.30856323 C339.17253382 83.37245992 339.17253382 83.37245992 332.43392158 92.25643891 C330.07426453 94.68356323 330.07426453 94.68356323 326.80106187 95.30455571 C325.48722953 95.30265711 324.17339718 95.30075851 322.81975174 95.29880238 C322.08407056 95.3045716 321.34838937 95.31034082 320.59041482 95.31628487 C318.11134466 95.32957916 315.63388009 95.30704377 313.15489197 95.28483582 C311.36539731 95.28701513 309.5759042 95.29139107 307.78641963 95.29778165 C302.85837241 95.30899209 297.93086579 95.28892065 293.00288749 95.26389134 C287.69275127 95.24234877 282.38264685 95.24960237 277.07247925 95.25340271 C267.86874894 95.25602763 258.66519552 95.24030721 249.4615097 95.21221352 C236.1544676 95.17162097 222.84751125 95.15856064 209.54041395 95.15227356 C187.95187682 95.14132371 166.36343402 95.10803076 144.77494812 95.0607605 C123.80066908 95.01488279 102.82641563 94.97948211 81.85209656 94.95822144 C80.55977837 94.95690782 79.26746018 94.9555942 77.93598083 94.95424078 C71.45296067 94.94771571 64.96994034 94.94139714 58.48691988 94.93518126 C4.68263622 94.88332675 -49.12154503 94.79524266 -102.92573547 94.68356323 C-101.97824539 93.57447471 -101.03022494 92.46583925 -100.08198547 91.35739136 C-99.55411438 90.7399707 -99.02624329 90.12255005 -98.4823761 89.48641968 C-96.34306648 87.00873274 -94.14139207 84.59308978 -91.92573547 82.18356323 C-91.2378595 81.43477905 -91.2378595 81.43477905 -90.53608704 80.67086792 C-86.60694628 76.40233294 -82.64094111 72.16856094 -78.67573547 67.93356323 C-74.59676926 63.57617671 -70.56708924 59.19567979 -66.66792297 54.67575073 C-59.64261863 46.64233096 -52.2712453 38.90473038 -44.98042297 31.11325073 C-41.74049578 27.64546052 -38.52822185 24.15771774 -35.36323547 20.62106323 C-34.7038146 19.90588032 -34.04439373 19.19069741 -33.36499041 18.45384228 C-31.55938513 16.40320361 -29.91859231 14.37210948 -28.2788375 12.19807327 C-19.80471086 1.43804141 -13.33509927 -0.34159136 0 0 Z " fill="#BDB9AF" transform="translate(363.9257354736328,38.316436767578125)"/>
<path d="M0 0 C2.11952607 0.00254067 4.23906006 0.00110975 6.35858154 -0.00398254 C12.09616753 -0.00655968 17.83205229 0.04626679 23.56924367 0.10918307 C29.57093072 0.16553251 35.57265893 0.17073853 41.5745697 0.18141174 C52.93254592 0.20935925 64.28974035 0.28317992 75.64737266 0.37355715 C88.58071919 0.47423387 101.51410351 0.52365812 114.44774449 0.56881607 C141.04624382 0.6628313 167.64404974 0.82108428 194.24194336 1.02172852 C193.31038897 2.28241294 192.37618858 3.54114235 191.44091797 4.79907227 C190.92097763 5.5002417 190.40103729 6.20141113 189.86534119 6.92382812 C187.37352591 10.14397549 184.6102052 13.07592865 181.80444336 16.02172852 C180.65386917 17.24490232 179.50412172 18.46885434 178.35522461 19.69360352 C177.81333496 20.27045898 177.27144531 20.84731445 176.71313477 21.44165039 C174.38142235 23.94593893 172.13901242 26.52290904 169.90209961 29.11157227 C164.74346475 35.04703685 159.41406705 40.83516489 154.11694336 46.64672852 C150.72454001 50.37315312 147.38019161 54.13351281 144.07788086 57.93969727 C141.87561357 60.43716208 139.620543 62.88300552 137.36694336 65.33422852 C134.05857422 68.95696757 130.88181978 72.63865743 127.80444336 76.45922852 C127.09850698 77.30378979 126.39257059 78.14835106 125.6652422 79.0185051 C123.20765722 81.97666393 123.20765722 81.97666393 121.1375761 85.14204788 C117.37074175 90.17439498 114.17803939 93.99562089 107.7623539 95.10689545 C102.1716113 95.6540777 96.5897038 95.50808877 90.98144531 95.3840332 C88.8320688 95.38064437 86.68267841 95.38255603 84.53330994 95.38934326 C78.72299919 95.39277479 72.91568454 95.32242328 67.1060679 95.23845577 C61.02571736 95.16324087 54.9452917 95.15637553 48.86454773 95.14215088 C37.36114813 95.10491097 25.85912341 95.00651769 14.35632819 94.885957 C1.25615437 94.75164622 -11.84408648 94.68580394 -24.94477785 94.62561178 C-51.88329854 94.50031182 -78.82060043 94.28935567 -105.75805664 94.02172852 C-104.81279061 92.74284403 -103.86494044 91.46586931 -102.91601562 90.18969727 C-102.38846176 89.47837646 -101.8609079 88.76705566 -101.31736755 88.03417969 C-99.33898943 85.48087916 -97.1497854 83.2565801 -94.82055664 81.02172852 C-91.27875088 77.55360073 -87.93970199 74.02470717 -84.71508789 70.26391602 C-82.2196929 67.40492056 -79.64847992 64.61853337 -77.07055664 61.83422852 C-76.55855713 61.28105957 -76.04655762 60.72789062 -75.51904297 60.15795898 C-73.93266406 58.44530973 -72.34535736 56.73352341 -70.75805664 55.02172852 C-68.69431457 52.79370847 -66.63183451 50.56452853 -64.57055664 48.33422852 C-64.0675 47.78992188 -63.56444336 47.24561523 -63.04614258 46.68481445 C-60.11320279 43.50602248 -57.20583931 40.30647851 -54.32055664 37.08422852 C-50.08306307 32.35274663 -45.75609832 27.70817374 -41.42333984 23.06420898 C-38.56248597 19.9905504 -35.74332939 16.89613932 -33.00805664 13.70922852 C-32.50740661 13.15667609 -32.00675657 12.60412367 -31.49093533 12.03482723 C-29.70536003 10.03797301 -29.70536003 10.03797301 -28.20169926 7.72879124 C-20.81212674 -1.7556554 -10.96692394 -0.18384608 0 0 Z " fill="#BEBAB0" transform="translate(804.758056640625,263.978271484375)"/>
<path d="M0 0 C70.62 0 141.24 0 214 0 C210.6269028 5.62182867 210.6269028 5.62182867 208.328125 8.05078125 C207.83223877 8.58018311 207.33635254 9.10958496 206.82543945 9.6550293 C206.30554443 10.20199463 205.78564941 10.74895996 205.25 11.3125 C204.16460038 12.47063844 203.07996075 13.6294896 201.99609375 14.7890625 C201.47644043 15.34368164 200.95678711 15.89830078 200.42138672 16.46972656 C198.12388464 18.94323103 195.9156625 21.49041439 193.70703125 24.04296875 C191.66366569 26.3855915 189.58319141 28.69273422 187.5 31 C182.68985199 36.33562637 177.94019763 41.71586881 173.28515625 47.1875 C167.46120502 54.02721235 161.54094856 60.74521015 155.4453125 67.34375 C149.45253597 73.8534753 143.74537358 80.61524679 137.99829102 87.34130859 C134.10399051 91.89600949 134.10399051 91.89600949 133 93 C130.23099828 93.09788593 127.48694335 93.12993123 124.71751404 93.12025452 C123.83869586 93.12110894 122.95987767 93.12196337 122.05442864 93.12284368 C119.08631436 93.12450119 116.11825562 93.11897271 113.15014648 93.11352539 C111.03179933 93.11324355 108.91345208 93.11340119 106.79510498 93.1139679 C101.02467859 93.114256 95.25427278 93.10835725 89.48385119 93.10139394 C83.46067581 93.09516248 77.43750001 93.09455677 71.4143219 93.09336853 C59.99978436 93.0902546 48.58525635 93.08204038 37.17072302 93.07201904 C24.1794126 93.06085982 11.18810173 93.05534794 -1.80321229 93.05032361 C-28.53548015 93.03985782 -55.26773954 93.02225718 -82 93 C-81.04515603 91.71234057 -80.08830883 90.42616644 -79.13061523 89.140625 C-78.33167091 88.06603027 -78.33167091 88.06603027 -77.5165863 86.96972656 C-75.84354198 84.79679395 -74.05288753 82.88518734 -72.0625 81 C-67.17816669 76.23524547 -62.78999446 71.11689193 -58.38671875 65.91015625 C-52.43808134 58.89678219 -46.33190822 52.09122858 -40.01269531 45.40942383 C-35.79724015 40.92595768 -31.91295622 36.2874017 -28.07421875 31.4765625 C-25.33517967 28.20622206 -22.31383842 25.29115303 -19.2578125 22.3203125 C-15.9705486 18.94205167 -13.08958242 15.26885485 -10.1484375 11.58984375 C-7.70292492 8.6418895 -5.09150363 5.97089116 -2.3125 3.33984375 C-0.87900567 2.01337071 -0.87900567 2.01337071 0 0 Z " fill="#C1BDB3" transform="translate(1004,490)"/>
<path d="M0 0 C0.33 0 0.66 0 1 0 C1.1634843 28.56344184 1.28694311 57.12681362 1.3626852 85.69062901 C1.39878757 98.95317278 1.4480126 112.21542595 1.52807617 125.4777832 C1.59782221 137.03656756 1.64300196 148.59514147 1.65861946 160.1541304 C1.66774944 166.27528078 1.68922264 172.39582907 1.7401104 178.51678658 C1.78761983 184.27805822 1.80228135 190.03847973 1.79175377 195.79992867 C1.79367971 197.91432312 1.80760657 200.02874596 1.83443832 202.14297104 C1.86930193 205.03174613 1.86088694 207.91731747 1.84178162 210.8061676 C1.86217151 211.64178634 1.8825614 212.47740507 1.90356916 213.33834559 C1.81776595 218.14205319 1.00335515 220.49124877 -2.43011379 223.93954372 C-3.60996037 224.97137804 -4.7987601 225.99315209 -6 227 C-7.18000719 228.30112403 -8.3462426 229.61521792 -9.484375 230.953125 C-12.96811031 234.98835464 -16.58814942 238.87659292 -20.25 242.75 C-24.85710332 247.64504727 -29.45545691 252.54673997 -34 257.5 C-34.804375 258.3765625 -35.60875 259.253125 -36.4375 260.15625 C-38.43492986 262.37290997 -40.40257561 264.60725094 -42.359375 266.859375 C-45.89683663 270.91311481 -49.55422952 274.84082545 -53.25 278.75 C-57.77716096 283.55885098 -62.29272356 288.37623199 -66.75 293.25 C-67.60851562 294.1884375 -68.46703125 295.126875 -69.3515625 296.09375 C-71.26637989 298.19496554 -73.1775103 300.29925125 -75.0859375 302.40625 C-75.84825684 303.24494629 -75.84825684 303.24494629 -76.62597656 304.10058594 C-77.60683094 305.17984525 -78.5854413 306.26114932 -79.56152344 307.34472656 C-80.68730445 308.58200399 -81.84091414 309.79386638 -83 311 C-83.33 311 -83.66 311 -84 311 C-84.18688028 282.58424442 -84.32795498 254.16858092 -84.41449738 225.75233459 C-84.45574861 212.55815082 -84.51198896 199.36434886 -84.60351562 186.17041016 C-84.6832522 174.67057923 -84.73486566 163.17102482 -84.75270796 151.67092514 C-84.76313781 145.58151774 -84.78764938 139.49290141 -84.84584045 133.40374756 C-84.90017995 127.67112988 -84.91688467 121.93962834 -84.90486145 116.20677757 C-84.90706064 114.10407633 -84.9229524 112.00133742 -84.9536438 109.89885902 C-85.17434914 93.99849843 -85.17434914 93.99849843 -82.2743988 89.06338501 C-80.28658561 87.05862199 -78.3317823 85.57334373 -76 84 C-74.86055431 82.78207244 -73.75097603 81.53479678 -72.6875 80.25 C-69.69320807 76.76922128 -66.61165182 73.3756803 -63.5 70 C-60.51984076 66.76501122 -57.55684189 63.52174792 -54.6875 60.1875 C-50.62993304 55.50115753 -46.3577815 51.01441626 -42.1184082 46.4934082 C-38.60937974 42.74460627 -35.16872045 38.95643501 -31.81640625 35.06640625 C-26.79533848 29.35426678 -21.55535876 23.8299204 -16.38134766 18.25634766 C-14.79487641 16.54684198 -13.20954623 14.83629005 -11.625 13.125 C-11.12291016 12.58311035 -10.62082031 12.0412207 -10.10351562 11.48291016 C-7.44349583 8.60122205 -4.84023378 5.68579043 -2.3125 2.6875 C-1.1678125 1.3571875 -1.1678125 1.3571875 0 0 Z " fill="#94AA83" transform="translate(780,43)"/>
<path d="M0 0 C0.33 0 0.66 0 1 0 C1.32753069 28.29458319 1.57415861 56.58888091 1.72537041 84.8849802 C1.79745804 98.02447062 1.8956768 111.16278092 2.05615234 124.30151367 C2.19601194 135.75783586 2.28608923 147.21330317 2.31723893 158.6704554 C2.33543921 164.73342802 2.3779825 170.79395581 2.48022079 176.85614204 C2.57583246 182.57215357 2.60445058 188.28473339 2.58350754 194.00146866 C2.58733382 196.09007035 2.61484885 198.17879637 2.66887665 200.26670265 C2.91184877 210.14780796 2.89208823 217.85978243 -3.88457859 225.55082029 C-6.27000287 227.97477718 -8.75368811 230.24529266 -11.32423949 232.47066581 C-13.79902169 234.72920395 -15.76227846 237.22758282 -17.8125 239.875 C-21.20258473 244.123572 -24.8487279 247.89475639 -28.7421875 251.6796875 C-32.04026148 255.06905764 -34.92948705 258.75621047 -37.8828125 262.4453125 C-40.16755616 265.20218031 -42.61663524 267.64927689 -45.19140625 270.12890625 C-47.43309917 272.44806588 -49.41895471 274.92208202 -51.4375 277.4375 C-54.15171471 280.81304621 -56.88847636 283.98745127 -60 287 C-63.93200042 290.81497659 -67.31891145 294.96934132 -70.75 299.234375 C-74.03045359 303.2665992 -77.38329453 307.26335277 -81 311 C-81.33 311 -81.66 311 -82 311 C-82.16352042 282.58421327 -82.28696084 254.16849705 -82.3626852 225.75233459 C-82.3987799 212.55819979 -82.44799029 199.36435732 -82.52807617 186.17041016 C-82.59784567 174.67057984 -82.64300754 163.17096123 -82.65861946 151.67092514 C-82.66774546 145.58159935 -82.68919339 139.49287923 -82.7401104 133.40374756 C-82.78765688 127.67119885 -82.80227386 121.93950474 -82.79175377 116.20677757 C-82.79367805 114.1040908 -82.80758286 112.00137517 -82.83443832 109.89885902 C-83.05161939 92.01719025 -83.05161939 92.01719025 -78.61000061 86.86181641 C-77.4394737 85.86789609 -76.23848974 84.90782928 -75 84 C-74.15695312 83.07574219 -73.31390625 82.15148437 -72.4453125 81.19921875 C-71.67960938 80.37035156 -70.91390625 79.54148437 -70.125 78.6875 C-66.72466437 74.96725419 -63.47335607 71.17549247 -60.3125 67.25 C-57.2766394 63.4885207 -54.14210092 60.02285915 -50.671875 56.6640625 C-48.27509166 54.27847909 -46.09079027 51.72744074 -43.8828125 49.16796875 C-41.7842468 46.75157049 -39.645603 44.37470976 -37.5 42 C-34.82951656 39.04130249 -32.17701942 36.07073528 -29.5625 33.0625 C-25.91062947 28.86835635 -22.15733816 24.76905708 -18.41015625 20.66015625 C-16.39641748 18.43753696 -14.40687963 16.19931651 -12.4375 13.9375 C-9.68375843 10.77628355 -6.91330708 7.63080779 -4.125 4.5 C-2.98417969 3.21609375 -2.98417969 3.21609375 -1.8203125 1.90625 C-1.21960938 1.2771875 -0.61890625 0.648125 0 0 Z " fill="#95AA84" transform="translate(1001,269)"/>
<path d="M0 0 C0.33 0 0.66 0 1 0 C1.30407467 28.18152537 1.53311797 56.36280386 1.67355824 84.54564095 C1.74050931 97.63238585 1.83173776 110.71810978 1.98071289 123.80419922 C2.1105425 135.2139989 2.19421656 146.623059 2.22315043 158.03357685 C2.24005703 164.07233897 2.27960586 170.10898592 2.37449074 176.14706802 C2.46320773 181.83915307 2.48985884 187.52826699 2.47039986 193.22097778 C2.47395559 195.3019111 2.4995419 197.38295107 2.54967117 199.46328354 C2.94609331 216.77408885 2.94609331 216.77408885 -3.53415424 224.19727218 C-5.74358301 226.44675267 -8.04724695 228.54229646 -10.44196284 230.59203696 C-12.7453442 232.67355074 -14.60530755 235.04930565 -16.5 237.5 C-21.06041926 243.19631705 -26.01734663 248.47319066 -31.00390625 253.79296875 C-35.39242781 258.47594944 -39.57119672 263.32416957 -43.734375 268.20703125 C-44.76021453 269.40902671 -45.78626258 270.61084423 -46.8125 271.8125 C-47.32989746 272.41876221 -47.84729492 273.02502441 -48.38037109 273.6496582 C-51.58515078 277.39090101 -54.85217052 281.06123836 -58.1875 284.6875 C-62.22214802 289.083075 -66.0039793 293.63449043 -69.75390625 298.2734375 C-73.35199743 302.64120732 -77.05507468 306.9406014 -81 311 C-81.33 311 -81.66 311 -82 311 C-82.21028514 282.60155063 -82.36897115 254.20321801 -82.46630955 225.80414677 C-82.51270782 212.61778289 -82.57595981 199.43190289 -82.67895508 186.24584961 C-82.76868801 174.75223432 -82.8267307 163.25896948 -82.84679645 151.76501364 C-82.85852525 145.67939364 -82.88606875 139.59477614 -82.95157051 133.50947762 C-83.01274954 127.77924087 -83.03148623 122.05041758 -83.01796913 116.31988525 C-83.02044117 114.21920014 -83.03829248 112.11846682 -83.07284927 110.0180645 C-83.3214273 94.1271034 -83.3214273 94.1271034 -80.0117321 88.79948235 C-77.7891264 86.55940354 -75.58756261 84.79028787 -73 83 C-71.5464024 81.30176097 -70.12099955 79.57809396 -68.75 77.8125 C-64.10789041 72.01393504 -59.08531345 66.63581649 -54.0078125 61.22265625 C-51.1577443 58.18205669 -48.39511189 55.07651576 -45.671875 51.921875 C-43.64241927 49.58894926 -41.572353 47.29488755 -39.5 45 C-34.70092208 39.67665307 -29.9592205 34.31136661 -25.3203125 28.84765625 C-19.683223 22.21748505 -13.96931438 15.69369358 -8.0090332 9.35083008 C-5.8124117 7.00567043 -3.71868063 4.64594223 -1.71875 2.12890625 C-0.86796875 1.07509766 -0.86796875 1.07509766 0 0 Z " fill="#95AA84" transform="translate(1221,493)"/>
<path d="M0 0 C1.2884935 -0.00116821 2.576987 -0.00233643 3.90452576 -0.00354004 C7.42143201 -0.00582684 10.93613625 0.04105701 14.45253253 0.09705162 C18.13328422 0.14721123 21.81409171 0.151773 25.49513245 0.16125488 C32.45816317 0.18607694 39.42018381 0.25166544 46.3827706 0.3320508 C55.79646186 0.43836546 65.21043121 0.48140775 74.6245718 0.52806854 C89.4465154 0.60319482 104.26632794 0.76259389 119.08813477 0.90820312 C119.08813477 31.59820312 119.08813477 62.28820312 119.08813477 93.90820312 C48.79813477 93.90820312 -21.49186523 93.90820312 -93.91186523 93.90820312 C-90.54190519 88.29160305 -90.54190519 88.29160305 -88.09155273 85.74414062 C-87.56102295 85.18525146 -87.03049316 84.6263623 -86.48388672 84.05053711 C-85.64386108 83.17570679 -85.64386108 83.17570679 -84.78686523 82.28320312 C-80.81511788 78.08296083 -76.96422682 73.86262191 -73.34936523 69.34570312 C-69.03879762 63.96344743 -64.39759679 58.94658045 -59.69702148 53.90820312 C-56.93145171 50.94198854 -54.25219409 47.90913024 -51.59936523 44.84179688 C-49.66879278 42.62968261 -47.69762634 40.45731403 -45.72436523 38.28320312 C-42.05065816 34.21521404 -38.46800641 30.07855624 -34.91186523 25.90820312 C-30.72658536 21.00004732 -26.4865278 16.15384068 -22.14233398 11.38476562 C-19.95609026 9.08071338 -19.95609026 9.08071338 -18.61672878 6.94828033 C-13.44291623 -0.24764608 -8.44457424 -0.20087541 0 0 Z " fill="#A9A59C" transform="translate(134.911865234375,264.091796875)"/>
<path d="M0 0 C1.65 0 3.3 0 5 0 C5 74.25 5 148.5 5 225 C77.3573035 224.96037737 77.3573035 224.96037737 149.71459961 224.90991211 C163.67492676 224.90539551 163.67492676 224.90539551 170.19996643 224.90455627 C174.77992736 224.90362056 179.35987683 224.89985705 183.93983459 224.89442444 C189.76994228 224.88759983 195.60003312 224.88550241 201.43014443 224.88692772 C203.57723463 224.88662939 205.72432537 224.88462619 207.87141216 224.88078487 C210.75686145 224.87585967 213.6422441 224.87699204 216.5276947 224.87974548 C217.80697515 224.87537649 217.80697515 224.87537649 219.11209965 224.87091923 C224.88587517 224.88587517 224.88587517 224.88587517 226 226 C226.0979454 228.88256603 226.12992191 231.74117583 226.12025452 234.62416077 C226.12110894 235.53973092 226.12196337 236.45530107 226.12284368 237.39861578 C226.12450129 240.49110506 226.11897254 243.58354104 226.11352539 246.67602539 C226.11324355 248.88304137 226.11340118 251.09005744 226.1139679 253.29707336 C226.11425601 259.30922725 226.10835711 265.32136137 226.10139394 271.33351064 C226.09516263 277.60893101 226.09455678 283.88435179 226.09336853 290.15977478 C226.09060884 300.69937477 226.08435333 311.23896825 226.07543945 321.77856445 C226.06626602 332.63631148 226.05918485 343.49405653 226.05493164 354.35180664 C226.05466892 355.02063093 226.05440619 355.68945521 226.05413551 356.3785469 C226.05283051 359.73370822 226.05156679 363.08886954 226.05032361 366.44403088 C226.03985772 394.29602566 226.022257 422.14801232 226 450 C227.12774558 449.99907821 228.25549116 449.99815641 229.41741085 449.99720669 C256.81505547 449.97504052 284.21269893 449.95859014 311.61035061 449.94818783 C324.85945898 449.94302408 338.10856144 449.9359799 351.35766602 449.92456055 C362.90100882 449.9146161 374.44434735 449.90814714 385.98769432 449.90591151 C392.10392255 449.90460399 398.22013853 449.90151558 404.33636284 449.89426994 C410.08590521 449.88751349 415.83543023 449.88538227 421.5849762 449.88689232 C423.70184486 449.88661582 425.81871406 449.88460849 427.9355793 449.88079453 C430.81229417 449.87586313 433.68894235 449.87699965 436.56565857 449.87974548 C437.83946582 449.87537622 437.83946582 449.87537622 439.13900656 449.87091869 C444.88587879 449.88587879 444.88587879 449.88587879 446 451 C446.09795178 453.89518589 446.12992093 456.76652079 446.12025452 459.66212463 C446.12110894 460.58177834 446.12196337 461.50143205 446.12284368 462.44895405 C446.1245013 465.55526277 446.11897252 468.66151845 446.11352539 471.76782227 C446.11324355 473.98469034 446.11340118 476.2015585 446.1139679 478.41842651 C446.11425601 484.45743901 446.1083571 490.49643183 446.10139394 496.53543973 C446.09516264 502.83888733 446.09455678 509.14233532 446.09336853 515.44578552 C446.09060883 526.03246395 446.08435332 536.61913589 446.07543945 547.20581055 C446.06626603 558.11206018 446.05918486 569.01830784 446.05493164 579.92456055 C446.05466892 580.59637183 446.05440619 581.26818311 446.05413551 581.96035231 C446.05283051 585.33049769 446.05156679 588.70064309 446.05032361 592.0707885 C446.03985771 620.04719739 446.02225698 648.02359819 446 676 C445.67 676 445.34 676 445 676 C444.67 607.69 444.34 539.38 444 469 C443.67 536.65 443.34 604.3 443 674 C442.67 674 442.34 674 442 674 C441.67 602.72 441.34 531.44 441 458 C433.98208433 465.655908 427.0164868 473.27753558 420.29296875 481.1796875 C414.4655094 488.02119707 408.54343269 494.74252108 402.4453125 501.34375 C398.28495473 505.86298847 394.27314465 510.50178609 390.29296875 515.1796875 C384.47662461 522.00814768 378.57318043 528.72100195 372.4765625 535.30078125 C369.75533094 538.26666612 367.12541188 541.29842321 364.53515625 544.37890625 C362.83668719 546.172455 361.01046072 547.57140048 359 549 C358.67 548.67 358.34 548.34 358 548 C355.34453427 547.90217749 352.71509085 547.87005853 350.05918884 547.87974548 C348.79608953 547.87846385 348.79608953 547.87846385 347.50747305 547.87715632 C344.66373371 547.87549893 341.82005234 547.8810271 338.97631836 547.88647461 C336.94664003 547.88675645 334.9169616 547.88659881 332.88728333 547.8860321 C327.35858439 547.88574401 321.82990695 547.8916426 316.30121303 547.89860606 C310.53028264 547.90483768 304.75935181 547.90544325 298.98841858 547.90663147 C288.0519964 547.90974535 277.11558417 547.91795951 266.17916638 547.92798096 C253.73198109 547.93914033 241.28479535 547.9446521 228.83760631 547.94967639 C203.22506535 547.96014208 177.61253323 547.97774262 152 548 C152 547.67 152 547.34 152 547 C153.04729719 547.00498599 154.09459438 547.00997198 155.17362785 547.01510906 C180.67178429 547.13397882 206.16948093 547.18948555 231.66792107 547.17878246 C243.99894053 547.17506917 256.32929287 547.19184697 268.66015625 547.25708008 C279.40943002 547.31389399 290.15795959 547.33204068 300.90735924 547.3040064 C306.59797992 547.2905091 312.28710503 547.29620338 317.97753525 547.34822655 C323.33805433 547.39662207 328.69608284 547.39316413 334.05662727 547.35058594 C336.01977675 547.34401328 337.98309492 547.35610166 339.94598579 547.38863564 C350.80657641 547.91964384 350.80657641 547.91964384 360.33191299 543.59560585 C362.85617388 540.85024963 364.93879822 538.10093185 367 535 C368.10341221 533.7103784 369.22372437 532.4345793 370.375 531.1875 C372.50343371 528.74429792 374.61125073 526.28429478 376.7109375 523.81640625 C382.53244664 516.98072343 388.4475342 510.26435263 394.54296875 503.671875 C397.16530261 500.82024327 399.71988319 497.91869929 402.2578125 494.9921875 C404.31500399 492.63979365 406.40596915 490.31965034 408.5 488 C414.47297214 481.3745183 420.31621851 474.6444 426.125 467.875 C426.87970581 466.99569824 426.87970581 466.99569824 427.6496582 466.09863281 C428.13909912 465.52725586 428.62854004 464.95587891 429.1328125 464.3671875 C429.56480957 463.86300293 429.99680664 463.35881836 430.44189453 462.83935547 C432.643994 460.23976014 434.81893977 457.61727228 437 455 C366.71 454.67 296.42 454.34 224 454 C223.34 455.32 222.68 456.64 222 458 C220.69067383 459.61230469 220.69067383 459.61230469 219.20703125 461.171875 C218.66288574 461.74953613 218.11874023 462.32719727 217.55810547 462.92236328 C216.98205566 463.5254834 216.40600586 464.12860352 215.8125 464.75 C214.62285939 466.01223105 213.4340492 467.27524532 212.24609375 468.5390625 C211.67874512 469.14137695 211.11139648 469.74369141 210.52685547 470.36425781 C208.22012521 472.83549106 206.01243171 475.38608663 203.8046875 477.9453125 C201.41218226 480.66924703 198.95594058 483.33343269 196.5 486 C192.90106554 489.90841623 189.35789387 493.85558756 185.87890625 497.87109375 C182.96816048 501.16913209 179.97981965 504.39619045 176.99194336 507.62426758 C174.42145521 510.41078564 171.94951284 513.2431136 169.5625 516.1875 C166.8937869 519.11657535 166.52063163 519.19449059 163 520 C160.77022004 521.97901574 160.77022004 521.97901574 159 524 C158.34 523.67 157.68 523.34 157 523 C157.47308594 522.55011719 157.94617188 522.10023438 158.43359375 521.63671875 C163.30365544 516.89956323 167.59786337 511.88573949 171.84765625 506.58984375 C173.64949998 504.42174504 175.47301814 502.45208184 177.5 500.5 C180.3842197 497.72211098 182.87231246 494.75119447 185.375 491.625 C188.9210074 487.21352639 192.68862517 483.26088354 196.7421875 479.3203125 C200.03571456 475.93561514 202.92121328 472.25381541 205.87109375 468.5703125 C208.16351655 465.80258001 210.58376286 463.28814036 213.19921875 460.828125 C214.09060547 459.92320312 214.09060547 459.92320312 215 459 C215.72418072 458.31233288 215.72418072 458.31233288 216.46299136 457.6107735 C220.29329873 453.65943022 221.68948351 450.89326595 221.77448785 445.39069182 C221.7570108 444.56285498 221.73953376 443.73501814 221.7215271 442.88209534 C221.72665365 441.98589995 221.7317802 441.08970456 221.7370621 440.16635174 C221.74691558 437.17469458 221.71399607 434.18507343 221.68115234 431.19360352 C221.67945928 429.04481555 221.6804111 426.89602411 221.68380737 424.74723816 C221.68552815 418.92108746 221.65026376 413.09567864 221.60836363 407.26970029 C221.57084397 401.17853133 221.56733027 395.08734518 221.56021118 388.99607849 C221.54156607 377.46470871 221.49233316 365.93368043 221.43211424 354.40246099 C221.36503904 341.27321342 221.33205749 328.14394949 221.30194163 315.01457322 C221.23923416 288.00952619 221.13370523 261.00478223 221 234 C218.74514176 236.4092671 216.49159747 238.81975945 214.23828125 241.23046875 C213.60249146 241.9097644 212.96670166 242.58906006 212.31164551 243.28894043 C208.67608772 247.17987399 205.09161746 251.10050286 201.6171875 255.13671875 C199.71420856 257.32928144 197.76402596 259.47554347 195.8125 261.625 C192.17711654 265.64922754 188.63970001 269.74596018 185.125 273.875 C181.14135 278.53278654 177.14585198 283.17916723 173.0625 287.75 C172.20785156 288.71421875 171.35320313 289.6784375 170.47265625 290.671875 C167.96756388 293.03054017 166.18734328 293.85872547 163 295 C160.96992481 296.46722954 160.96992481 296.46722954 159.1875 298.125 C158.58292969 298.66382813 157.97835937 299.20265625 157.35546875 299.7578125 C156.90816406 300.16773438 156.46085938 300.57765625 156 301 C157.32856194 298.07356763 158.79564177 295.9299237 161.01171875 293.609375 C161.60122314 292.98635498 162.19072754 292.36333496 162.7980957 291.72143555 C163.73335083 290.74557495 163.73335083 290.74557495 164.6875 289.75 C165.96703096 288.39797253 167.24568767 287.04511712 168.5234375 285.69140625 C169.13155273 285.0483252 169.73966797 284.40524414 170.36621094 283.74267578 C172.7709258 281.1776945 175.07971982 278.537525 177.375 275.875 C182.51430767 269.94502962 187.83924419 264.17409173 193.125 258.375 C196.53115814 254.63294953 199.89343049 250.85969853 203.2109375 247.0390625 C206.0630669 243.78838227 208.97701022 240.59366017 211.88671875 237.39453125 C214.00888938 234.98992756 216.00491656 232.51034744 218 230 C190.3400744 229.6725172 162.68044058 229.42586492 135.01896477 229.27462959 C122.17425489 229.20253174 109.33075162 229.10429367 96.48681641 228.94384766 C85.28796629 228.80401904 74.08999019 228.71391818 62.89029133 228.68276107 C56.9631425 228.66455543 51.03849333 228.62197892 45.11214828 228.51977921 C39.52498082 228.42421598 33.94132359 228.39553939 28.35341644 228.41649246 C26.31115456 228.412664 24.26876637 228.3851188 22.22721481 228.33112335 C12.57660551 228.08856121 5.08004095 228.05861182 -2.26107109 234.91814792 C-5.02398382 237.81321154 -7.53462656 240.85138522 -10 244 C-11.22084905 245.38239042 -12.44703817 246.76018128 -13.6875 248.125 C-14.203125 248.73214844 -14.71875 249.33929688 -15.25 249.96484375 C-17.50732364 252.58999022 -19.84452095 255.13909678 -22.1875 257.6875 C-22.65293213 258.19410156 -23.11836426 258.70070313 -23.59790039 259.22265625 C-26.08067572 261.9217835 -28.56870414 264.6160295 -31.05859375 267.30859375 C-32.080749 268.41404416 -33.10288444 269.51951289 -34.125 270.625 C-34.63264893 271.17389893 -35.14029785 271.72279785 -35.66333008 272.28833008 C-38.59333925 275.46112363 -41.49644541 278.65528338 -44.375 281.875 C-48.231793 286.18222138 -52.17162504 290.40675616 -56.125 294.625 C-60.85135178 299.67001021 -65.47192367 304.77529654 -70 310 C-74.95 315.445 -74.95 315.445 -80 321 C-8.72 321.33 62.56 321.66 136 322 C136 322.33 136 322.66 136 323 C64.39 323 -7.22 323 -81 323 C-81 323.99 -81 324.98 -81 326 C-127.2 326 -173.4 326 -221 326 C-220.01 325.34 -219.02 324.68 -218 324 C-318.32 323.67 -418.64 323.34 -522 323 C-522 322.67 -522 322.34 -522 322 C-378.78 322 -235.56 322 -88 322 C-88 250.06 -88 178.12 -88 104 C-87.67 104 -87.34 104 -87 104 C-86.67 163.73 -86.34 223.46 -86 285 C-85.67 224.61 -85.34 164.22 -85 102 C-84.67 102 -84.34 102 -84 102 C-83.505 208.425 -83.505 208.425 -83 317 C-70.7492139 304.0030403 -70.7492139 304.0030403 -58.63671875 290.88671875 C-55.78899322 287.76898666 -52.92775848 284.66410652 -50.0625 281.5625 C-49.56693604 281.02568604 -49.07137207 280.48887207 -48.56079102 279.93579102 C-45.98351635 277.14461383 -43.40351977 274.35600019 -40.8203125 271.5703125 C-40.2955835 271.00368896 -39.77085449 270.43706543 -39.23022461 269.85327148 C-38.24497274 268.78943646 -37.25889038 267.72636957 -36.27172852 266.66430664 C-33.66674406 263.84993157 -31.11653732 260.9967939 -28.6015625 258.1015625 C-25.05951738 254.03699194 -21.39250319 250.10332529 -17.6875 246.1875 C-15.84575147 244.23892609 -14.00992813 242.29098462 -12.2135067 240.30042744 C-10 238 -10 238 -7.46064186 235.92518139 C-1.95483546 231.0062492 0.51867605 227.30558684 1.10871148 220.00406897 C1.27892975 215.21326404 1.2231755 210.43970051 1.13525391 205.64770508 C1.13242991 203.48847587 1.13402287 201.32923707 1.13967896 199.17001343 C1.14253848 193.33322378 1.08390859 187.49850532 1.01393938 181.66219544 C0.95126165 175.55376945 0.94553918 169.44529157 0.9336853 163.33659363 C0.90265206 151.78027378 0.82065621 140.22490431 0.72019041 128.66900223 C0.60826594 115.5083099 0.55339623 102.34757125 0.50323606 89.18652117 C0.39881911 62.12382134 0.22302112 35.06196401 0 8 C-1.9092817 10.06471028 -3.81806199 12.12988033 -5.7265625 14.1953125 C-6.26224854 14.77450439 -6.79793457 15.35369629 -7.34985352 15.95043945 C-10.3846311 19.23560358 -13.39692418 22.53813803 -16.375 25.875 C-20.23179194 30.1822202 -24.17159113 34.40678928 -28.125 38.625 C-32.22026903 42.99572591 -36.26685059 47.38669552 -40.17578125 51.92578125 C-42.67358164 54.76589261 -45.24272225 57.53755677 -47.8125 60.3125 C-57.74046826 71.02080753 -57.74046826 71.02080753 -67.4375 81.9375 C-72.17696564 87.39472125 -77.10187767 92.68558156 -82 98 C-82.66 97.67 -83.32 97.34 -84 97 C-83.47685426 93.09907941 -82.60861794 91.10348843 -79.8671875 88.29296875 C-79.22523438 87.62330078 -78.58328125 86.95363281 -77.921875 86.26367188 C-77.24640625 85.57853516 -76.5709375 84.89339844 -75.875 84.1875 C-74.55855134 82.82812367 -73.24344331 81.46744774 -71.9296875 80.10546875 C-71.27387695 79.42790527 -70.61806641 78.7503418 -69.94238281 78.05224609 C-67.44384343 75.41238661 -65.06592348 72.67915551 -62.68798828 69.9309082 C-60.02843298 66.88861389 -57.26387037 63.94726698 -54.5 61 C-50.54378131 56.76179372 -46.64507349 52.49392461 -42.85546875 48.10546875 C-38.84008716 43.54906732 -34.67368892 39.12631353 -30.54638672 34.67138672 C-17.01533818 20.06337231 -17.01533818 20.06337231 -4 5 C-145.9 4.67 -287.8 4.34 -434 4 C-434 3.67 -434 3.34 -434 3 C-290.78 2.67 -147.56 2.34 0 2 C0 1.34 0 0.68 0 0 Z " fill="#151611" transform="translate(780,36)"/>
<path d="M0 0 C1.80706207 -0.00480131 3.61411663 -0.01444101 5.42113054 -0.02848083 C10.37061188 -0.05301444 15.31746229 -0.00917555 20.26660848 0.04607785 C25.60935634 0.09366346 30.95196062 0.07750015 36.29486084 0.06915283 C45.54624096 0.06339001 54.79676651 0.09784735 64.04793167 0.15976906 C77.42334343 0.24923762 90.79834274 0.27782202 104.17402129 0.29163697 C125.87588172 0.31570094 147.57728687 0.38887511 169.27890015 0.4929657 C190.35765304 0.59396353 211.4362822 0.67181206 232.51522827 0.71855164 C234.46478253 0.72288657 234.46478253 0.72288657 236.45372172 0.72730909 C242.97406966 0.74166469 249.49441848 0.75556543 256.01476789 0.76924002 C310.09189613 0.88323984 364.16853021 1.07695443 418.24520874 1.32279968 C418.24520874 1.98279968 418.24520874 2.64279968 418.24520874 3.32279968 C415.26515987 4.81282412 412.57867482 4.44681053 409.25240898 4.44584751 C408.1548813 4.44757828 408.1548813 4.44757828 407.03518134 4.44934401 C404.55820162 4.45201249 402.08128557 4.44748661 399.60430908 4.4430542 C397.82066906 4.44348985 396.0370291 4.44436465 394.25338948 4.44564337 C389.33242018 4.44788946 384.41147247 4.44386548 379.49050593 4.4388653 C374.19124141 4.43456262 368.89197818 4.4360071 363.5927124 4.43676758 C354.40484197 4.43729293 345.21697861 4.43414497 336.02910995 4.42852974 C322.74485472 4.42041625 309.46060293 4.41779967 296.17634548 4.41654175 C274.62556749 4.41435099 253.07479327 4.40769026 231.52401733 4.39823914 C210.5845644 4.38906563 189.64511249 4.3819845 168.70565796 4.37773132 C167.41580132 4.3774686 166.12594467 4.37720588 164.79700147 4.37693519 C158.32642396 4.37563019 151.85584645 4.37436647 145.38526893 4.37312329 C91.67191292 4.36274994 37.95856101 4.34513098 -15.75479126 4.32279968 C-16.05530899 4.94706848 -16.35582672 5.57133728 -16.66545105 6.21452332 C-17.8255244 8.45969448 -19.10167663 9.96888831 -20.84463501 11.79154968 C-21.45855103 12.43898132 -22.07246704 13.08641296 -22.70498657 13.75346375 C-23.68870239 14.77778503 -23.68870239 14.77778503 -24.69229126 15.82279968 C-26.06130944 17.26500643 -27.42979529 18.70771866 -28.79776001 20.15092468 C-29.4724231 20.86055359 -30.14708618 21.5701825 -30.8421936 22.30131531 C-33.42576248 25.03197019 -35.97116749 27.79585463 -38.50479126 30.57279968 C-39.37877563 31.52928406 -40.25276001 32.48576843 -41.15322876 33.47123718 C-42.01174438 34.41225281 -42.87026001 35.35326843 -43.75479126 36.32279968 C-45.54573175 38.28180497 -47.33716734 40.24033678 -49.12979126 42.19779968 C-49.7988147 42.92869812 -49.7988147 42.92869812 -50.48135376 43.67436218 C-53.57113863 47.04503659 -56.68131292 50.39615895 -59.79849243 53.74150085 C-64.24161379 58.5101163 -68.64518202 63.29300619 -72.90713501 68.22514343 C-81.62508898 78.12269371 -90.78401994 87.66196903 -99.75479126 97.32279968 C42.80520874 97.32279968 185.36520874 97.32279968 332.24520874 97.32279968 C332.57520874 96.66279968 332.90520874 96.00279968 333.24520874 95.32279968 C333.90520874 95.65279968 334.56520874 95.98279968 335.24520874 96.32279968 C335.08347199 97.31714807 334.92173525 98.31149645 334.75509739 99.3359766 C334.19751564 103.26101717 334.09259012 107.15217762 334.08699036 111.11196899 C334.07958339 112.24187558 334.07958339 112.24187558 334.07202679 113.39460856 C334.0567504 115.90183881 334.04831811 118.40904365 334.03988647 120.91630554 C334.03030019 122.72027304 334.02028967 124.52423832 334.0098877 126.32820129 C333.98291392 131.21398041 333.96186372 136.0997691 333.94188571 140.98558116 C333.9199796 146.09585349 333.89261358 151.20609654 333.86582947 156.31634521 C333.81596503 165.98819672 333.77100307 175.66006453 333.7278071 185.33194786 C333.67838126 196.3452211 333.62348299 207.35846493 333.56812751 218.3717097 C333.45440342 241.02204559 333.34754361 263.67240968 333.24520874 286.32279968 C332.58520874 286.65279968 331.92520874 286.98279968 331.24520874 287.32279968 C330.91520874 226.27279968 330.58520874 165.22279968 330.24520874 102.32279968 C187.02520874 102.32279968 43.80520874 102.32279968 -103.75479126 102.32279968 C-103.75479126 103.97279968 -103.75479126 105.62279968 -103.75479126 107.32279968 C-105.23979126 107.81779968 -105.23979126 107.81779968 -106.75479126 108.32279968 C-107.72739177 104.71503369 -107.72300347 101.94228457 -106.75479126 98.32279968 C-103.64548687 93.72802577 -99.48170922 89.954157 -95.5218811 86.10307312 C-93.06674653 83.62962171 -90.81370146 81.00030178 -88.53823853 78.36235046 C-84.93258656 74.23892588 -81.12660818 70.29882084 -77.36026001 66.32279968 C-74.27052112 63.04754852 -71.2289304 59.74768249 -68.27822876 56.34623718 C-64.59353382 52.10231367 -60.74960732 48.02256507 -56.87979126 43.94779968 C-51.83632393 38.61402771 -46.83873179 33.25221106 -41.95401001 27.77201843 C-38.81970006 24.28141037 -35.63163782 20.84129147 -32.4413147 17.40190125 C-31.74763794 16.65311707 -31.74763794 16.65311707 -31.03994751 15.88920593 C-30.55346627 15.38587921 -30.06698502 14.88255249 -29.56576192 14.36397344 C-27.64962658 12.28483078 -27.64962658 12.28483078 -25.8706671 9.6147725 C-18.62198061 0.00393897 -11.4724014 -0.2269616 0 0 Z " fill="#080806" transform="translate(361.7547912597656,34.67720031738281)"/>
<path d="M0 0 C0 4.29638466 -2.52985829 6.31139762 -5.25 9.375 C-6.05123291 10.29406128 -6.05123291 10.29406128 -6.86865234 11.23168945 C-11.20780573 16.180303 -15.65428173 21.03122957 -20.16503906 25.82373047 C-24.92664719 30.90094485 -26.29498552 33.84684461 -26.25828552 40.71229553 C-26.26196123 41.50565683 -26.26563693 42.29901813 -26.26942402 43.11642069 C-26.27943023 45.78348913 -26.27524808 48.45035015 -26.27124023 51.11743164 C-26.27562568 53.02593712 -26.28092717 54.93444068 -26.28707886 56.84294128 C-26.29859251 60.95666233 -26.30403926 65.07033178 -26.30496025 69.18406868 C-26.30689686 75.68326149 -26.32492651 82.1823471 -26.34571838 88.6815033 C-26.39495974 104.82314111 -26.42582424 120.96480804 -26.44702148 137.10650635 C-26.46351991 149.65153552 -26.48626089 162.19647305 -26.53004223 174.74144071 C-26.55188808 181.2079551 -26.55987004 187.67429569 -26.55764949 194.14084446 C-26.55931046 198.1562097 -26.57332297 202.17146043 -26.59086227 206.18678474 C-26.59648473 208.0548927 -26.59692609 209.92302416 -26.59192467 211.79113388 C-26.58583162 214.33258343 -26.59792621 216.87330243 -26.61473083 219.41468811 C-26.60851902 220.16166004 -26.6023072 220.90863196 -26.59590715 221.67823941 C-26.62082577 223.73251438 -26.62082577 223.73251438 -27 227 C-27.99 227.66 -28.98 228.32 -30 229 C-30 164.65 -30 100.3 -30 34 C-101.61 34 -173.22 34 -247 34 C-247 33.01 -247 32.02 -247 31 C-245.33905241 31.01024436 -245.33905241 31.01024436 -243.64455032 31.02069569 C-216.67698205 31.18403993 -189.70995891 31.2723519 -162.74188614 31.28240681 C-149.70008997 31.28899879 -136.65919666 31.31979318 -123.61767578 31.40795898 C-112.2479567 31.48476092 -100.87918346 31.51574979 -89.50921321 31.49218339 C-83.49079581 31.48129697 -77.47437563 31.49303917 -71.45627594 31.55968666 C-65.78528103 31.62176525 -60.11752537 31.62233709 -54.44640541 31.5768013 C-52.37118811 31.57078433 -50.29576532 31.58677412 -48.2209301 31.62704659 C-36.45045129 32.12011184 -36.45045129 32.12011184 -26.19750214 27.21199608 C-23.55734041 24.57585813 -21.31501107 21.73982052 -19.18661451 18.68088663 C-16.23160314 14.49499555 -12.90584232 10.69811584 -9 7.375 C-8.319375 6.79363281 -7.63875 6.21226562 -6.9375 5.61328125 C-4.65048605 3.70897327 -2.34523823 1.83221737 0 0 Z " fill="#030501" transform="translate(946,328)"/>
<path d="M0 0 C0 70.95 0 141.9 0 215 C-0.99 214.67 -1.98 214.34 -3 214 C-3.33 144.7 -3.66 75.4 -4 4 C-4.66 3.67 -5.32 3.34 -6 3 C-6 2.34 -6 1.68 -6 1 C-1.125 0 -1.125 0 0 0 Z " fill="#010400" transform="translate(1139,583)"/>
<path d="M0 0 C0.66 0.33 1.32 0.66 2 1 C2.23377936 27.92963489 2.41003083 54.85911733 2.51812172 81.78956318 C2.56964825 94.29438037 2.63987537 106.79856645 2.75439453 119.30297852 C2.85418206 130.20404733 2.91860939 141.10465902 2.94088495 152.00617188 C2.95390304 157.77676286 2.98441507 163.54604628 3.05730057 169.31621742 C3.12541219 174.75273469 3.14606968 180.18741183 3.13107681 185.62431526 C3.13381763 187.61453011 3.15357405 189.60480939 3.19205475 191.59465408 C3.50234326 208.47423561 3.50234326 208.47423561 -2.86392212 215.50968933 C-4.55680931 217.02807234 -6.26716664 218.52736884 -8 220 C-9.13090653 221.37425803 -10.2393767 222.76766159 -11.3125 224.1875 C-14 227 -14 227 -16.66796875 227.17578125 C-17.82232422 227.08876953 -17.82232422 227.08876953 -19 227 C-16.22484507 223.06853051 -13.68319105 219.60347293 -10.05990982 216.40297413 C-4.36864634 211.34245072 -0.45268775 206.90213563 0.35916662 199.12457788 C0.57828778 194.61373291 0.53783577 190.12793991 0.45410156 185.61401367 C0.46059016 183.58254242 0.47235883 181.55108229 0.4889679 179.51966858 C0.51897323 174.04023722 0.4756996 168.56360935 0.41865635 163.08448577 C0.37157087 157.3456129 0.39271406 151.60698779 0.40643311 145.86799622 C0.42210234 135.01651567 0.37694818 124.16618626 0.30961108 113.31493789 C0.23589481 100.95450801 0.2304851 88.59433832 0.23064089 76.23372304 C0.22943979 50.82204948 0.14301819 25.41124338 0 0 Z " fill="#030602" transform="translate(1223,504)"/>
<path d="M0 0 C0.99 0.33 1.98 0.66 3 1 C3.06999113 29.12834257 3.12293955 57.25667214 3.15543652 85.38508415 C3.17092452 98.44474061 3.19205088 111.50434305 3.22631836 124.56396484 C3.25616162 135.94287848 3.27556092 147.32175301 3.28226548 158.70070469 C3.28618636 164.7292592 3.29544092 170.75770181 3.31719017 176.78622055 C3.33747525 182.45454655 3.34385003 188.122714 3.33932304 193.79107285 C3.34015183 195.87689067 3.34616474 197.96271351 3.35761642 200.04850006 C3.37243579 202.88563001 3.36899249 205.72215308 3.36076355 208.55929565 C3.36950207 209.3939148 3.3782406 210.22853395 3.38724393 211.08844459 C3.36914349 213.38055229 3.36914349 213.38055229 3 217 C1.515 217.99 1.515 217.99 0 219 C0 146.73 0 74.46 0 0 Z " fill="#7F8B77" transform="translate(1139,585)"/>
<path d="M0 0 C0.99 0.495 0.99 0.495 2 1 C1.505 1.598125 1.01 2.19625 0.5 2.8125 C-1.28276418 4.97029994 -1.28276418 4.97029994 -1 8 C-2.59446192 9.93123612 -4.1981887 11.70807761 -5.9375 13.5 C-9.55730329 17.3282706 -13.03165812 21.18359145 -16.3125 25.3125 C-20.57044743 30.61008989 -25.17601983 35.51437156 -29.8425293 40.44799805 C-34.02068907 44.88824598 -37.91259386 49.48129753 -41.71875 54.24609375 C-44.89612964 58.08180034 -48.27511175 61.71329833 -51.67993164 65.34692383 C-55.12473393 69.02542293 -58.42357086 72.78990297 -61.59765625 76.70703125 C-63 78 -63 78 -66 78 C-65.67685082 72.60744807 -62.59851671 70.01371799 -59 66.375 C-57.79820017 65.12356736 -56.59899232 63.86964055 -55.40234375 62.61328125 C-54.81565918 61.99791504 -54.22897461 61.38254883 -53.62451172 60.74853516 C-51.48374614 58.44433271 -49.51644533 56.02617019 -47.5625 53.5625 C-42.75672252 47.55749893 -37.48784835 42.02439223 -32.21875 36.4296875 C-28.71067661 32.70336069 -25.31940362 28.895146 -22 25 C-20.06382881 22.72802986 -18.12636262 20.45717387 -16.1875 18.1875 C-15.67654785 17.5891333 -15.1655957 16.9907666 -14.63916016 16.37426758 C-9.87184872 10.81140259 -4.96722252 5.38482088 0 0 Z " fill="#100F0D" transform="translate(115,267)"/>
<path d="M0 0 C0.33 0 0.66 0 1 0 C1 72.6 1 145.2 1 220 C0.67 220 0.34 220 0 220 C-0.33 149.05 -0.66 78.1 -1 5 C-1.99 5 -2.98 5 -4 5 C-2.69254251 3.31295807 -1.35827971 1.64639965 0 0 Z " fill="#8E9B86" transform="translate(780,43)"/>
<path d="M0 0 C1.65 0 3.3 0 5 0 C4.26940354 0.62768287 4.26940354 0.62768287 3.52404755 1.2680462 C0.97061416 4.16981173 1.57958867 7.79949817 1.60127258 11.48503113 C1.59462576 12.36147461 1.58797893 13.23791809 1.58113068 14.14092046 C1.56242069 17.08909953 1.56511134 20.03687561 1.56762695 22.98510742 C1.55861468 25.09390337 1.54828879 27.20269406 1.53674316 29.31147766 C1.50908429 35.04666799 1.49987659 40.78175918 1.49388909 46.51700759 C1.48452851 52.50684677 1.45832707 58.49661122 1.43388367 64.48640442 C1.39015111 75.83356567 1.36164566 87.18071248 1.33856028 98.52793247 C1.31154479 111.44436505 1.26763107 124.36072271 1.22227156 137.27710187 C1.12932852 163.85136067 1.05769206 190.42564296 1 217 C0.67 217 0.34 217 0 217 C0 145.39 0 73.78 0 0 Z " fill="#C8C6BF" transform="translate(259,588)"/>
<path d="M0 0 C-0.58742245 3.44712983 -1.75371331 5.14848172 -4.16796875 7.64453125 C-4.81443359 8.32193359 -5.46089844 8.99933594 -6.12695312 9.69726562 C-6.80693359 10.39529297 -7.48691406 11.09332031 -8.1875 11.8125 C-9.51577711 13.19261231 -10.84261551 14.57411084 -12.16796875 15.95703125 C-12.81556152 16.62814941 -13.4631543 17.29926758 -14.13037109 17.99072266 C-16.41250832 20.44331986 -18.51194654 23.01779191 -20.5715332 25.65893555 C-22.31828208 27.29880763 -23.69229206 27.48612632 -26 28 C-28.22977996 29.97901574 -28.22977996 29.97901574 -30 32 C-30.66 31.67 -31.32 31.34 -32 31 C-31.52691406 30.55011719 -31.05382812 30.10023438 -30.56640625 29.63671875 C-26.68615503 25.86236133 -23.15294441 22.01215963 -19.8125 17.75 C-16.19040043 13.23504022 -12.29986325 9.23721819 -8.0625 5.3125 C-7.49442627 4.78301758 -6.92635254 4.25353516 -6.34106445 3.70800781 C-2.25794422 0 -2.25794422 0 0 0 Z " fill="#090A07" transform="translate(969,528)"/>
<path d="M0 0 C0.66 0.66 1.32 1.32 2 2 C-3.91781611 9.08470943 -10.43141333 15.52848604 -17 22 C-17.66 21.67 -18.32 21.34 -19 21 C-18.60208252 20.57702637 -18.20416504 20.15405273 -17.79418945 19.71826172 C-15.96521593 17.77213825 -14.13884621 15.82358916 -12.3125 13.875 C-11.68666016 13.20984375 -11.06082031 12.5446875 -10.41601562 11.859375 C-6.80763861 8.00540164 -3.33465583 4.09340161 0 0 Z " fill="#8D9B84" transform="translate(1168,553)"/>
<path d="M0 0 C0.66 0.33 1.32 0.66 2 1 C-1.14889124 8.94720169 -1.14889124 8.94720169 -4 11 C-4.9590625 11.2165625 -4.9590625 11.2165625 -5.9375 11.4375 C-8.76506306 12.20865356 -10.06916116 13.86228557 -12 16 C-12.66 15.67 -13.32 15.34 -14 15 C-13.49210938 14.50371094 -12.98421875 14.00742187 -12.4609375 13.49609375 C-8.07156726 9.16426208 -3.94791282 4.73749539 0 0 Z " fill="#0E1509" transform="translate(951,544)"/>
<path d="M0 0 C0.66 0.33 1.32 0.66 2 1 C1.505 1.598125 1.01 2.19625 0.5 2.8125 C-1.28276418 4.97029994 -1.28276418 4.97029994 -1 8 C-4 10 -4 10 -5.875 10.875 C-8.52798222 12.27952 -10.69912417 14.08260348 -13 16 C-11.3383196 11.87582937 -8.37661982 8.93445961 -5.375 5.75 C-4.859375 5.19570313 -4.34375 4.64140625 -3.8125 4.0703125 C-2.54574965 2.7097288 -1.27342185 1.35434163 0 0 Z " fill="#1E1E1B" transform="translate(115,267)"/>
<path d="M0 0 C0.86625 0.37125 0.86625 0.37125 1.75 0.75 C0.25958227 4.54379058 -1.94062512 6.43343758 -5.25 8.75 C-5.91 8.75 -6.57 8.75 -7.25 8.75 C-6.89947365 5.59526281 -6.38480924 3.9266466 -4.4375 1.375 C-2.25 -0.25 -2.25 -0.25 0 0 Z " fill="#171714" transform="translate(56.25,336.25)"/>
<path d="M0 0 C0.66 0 1.32 0 2 0 C0.663414 4.00975799 -0.99189371 6.30636851 -4.0625 9.1875 C-6.92137806 11.80417081 -6.92137806 11.80417081 -9 15 C-9.99 14.67 -10.98 14.34 -12 14 C-11.55269531 13.49210937 -11.10539063 12.98421875 -10.64453125 12.4609375 C-10.03996094 11.77257812 -9.43539062 11.08421875 -8.8125 10.375 C-8.17570313 9.65054688 -7.53890625 8.92609375 -6.8828125 8.1796875 C-5.2734359 6.31655028 -3.7239969 4.42292127 -2.1875 2.5 C-1.465625 1.675 -0.74375 0.85 0 0 Z " fill="#919F87" transform="translate(716,113)"/>
<path d="M0 0 C0.66 0 1.32 0 2 0 C0.34908222 4.29238623 -2.73754566 6.8793915 -6 10 C-6.66 9.67 -7.32 9.34 -8 9 C-6.85459775 7.68712379 -5.70866567 6.37470979 -4.5625 5.0625 C-3.92441406 4.33160156 -3.28632813 3.60070313 -2.62890625 2.84765625 C-1.77458541 1.87860647 -0.91348825 0.91348825 0 0 Z M-9 10 C-9 13 -9 13 -11 15.1875 C-11.66 15.785625 -12.32 16.38375 -13 17 C-13.66 16.67 -14.32 16.34 -15 16 C-13.02 14.02 -11.04 12.04 -9 10 Z " fill="#B5B1AB" transform="translate(333,54)"/>
<path d="M0 0 C0.33 0 0.66 0 1 0 C1 9.57 1 19.14 1 29 C0.67 29 0.34 29 0 29 C-0.33 21.08 -0.66 13.16 -1 5 C-1.99 5 -2.98 5 -4 5 C-2.69254251 3.31295807 -1.35827971 1.64639965 0 0 Z " fill="#868E81" transform="translate(780,43)"/>
<path d="M0 0 C1 3 1 3 0 5.5625 C-2.63712448 8.77649546 -5.00660052 9.17118124 -9 10 C-8.06409496 8.8944811 -7.12620142 7.79064547 -6.1875 6.6875 C-5.66542969 6.07261719 -5.14335938 5.45773438 -4.60546875 4.82421875 C-3.12827531 3.14575321 -1.59960869 1.56117966 0 0 Z " fill="#8C9883" transform="translate(743,84)"/>
<path d="M0 0 C0.556875 0.268125 1.11375 0.53625 1.6875 0.8125 C1.0275 2.1325 0.3675 3.4525 -0.3125 4.8125 C-1.3025 4.8125 -2.2925 4.8125 -3.3125 4.8125 C-5.3485882 6.09004554 -7.35359119 7.41949818 -9.3125 8.8125 C-7.66495848 4.76853446 -4.80734346 -0.3897846 0 0 Z " fill="#191E15" transform="translate(713.3125,338.1875)"/>
<path d="M0 0 C0.33 0.66 0.66 1.32 1 2 C0.0625 4.125 0.0625 4.125 -1 6 C-1.66 6 -2.32 6 -3 6 C-3 6.66 -3 7.32 -3 8 C-4.75 9.7265625 -4.75 9.7265625 -7 11.625 C-7.7425 12.25664062 -8.485 12.88828125 -9.25 13.5390625 C-9.8275 14.02117187 -10.405 14.50328125 -11 15 C-11.66 14.67 -12.32 14.34 -13 14 C-12.48050781 13.49210937 -11.96101562 12.98421875 -11.42578125 12.4609375 C-7.3775629 8.46509906 -3.55349109 4.44186386 0 0 Z " fill="#899681" transform="translate(966,308)"/>
<path d="M0 0 C0.99 0.33 1.98 0.66 3 1 C2.45773019 4.79588866 0.79872437 6.47211993 -2 9 C-2.33 8.34 -2.66 7.68 -3 7 C-3.99 7 -4.98 7 -6 7 C-4.02 4.69 -2.04 2.38 0 0 Z " fill="#141910" transform="translate(1165,774)"/>
<path d="M0 0 C1.32 0.99 2.64 1.98 4 3 C-0.625 7 -0.625 7 -4 7 C-4 4 -4 4 -2 1.8125 C-1.34 1.214375 -0.68 0.61625 0 0 Z " fill="#171A12" transform="translate(759,60)"/>
<path d="M0 0 C-1.55500981 3.81684226 -4.03595495 6.19195732 -7 9 C-7.66 8.34 -8.32 7.68 -9 7 C-7.88121617 5.82737096 -6.75476949 4.66204862 -5.625 3.5 C-4.68527344 2.52546875 -4.68527344 2.52546875 -3.7265625 1.53125 C-2 0 -2 0 0 0 Z " fill="#9DAA92" transform="translate(736,94)"/>
<path d="M0 0 C0.66 0.66 1.32 1.32 2 2 C-0.38957269 5.24299151 -2.2047869 7.50902342 -6 9 C-4.68775452 5.06326356 -3.08089673 2.77280706 0 0 Z " fill="#8C9984" transform="translate(771,53)"/>
<path d="M0 0 C-1.5830577 4.2742558 -4.50568404 6.26531794 -8 9 C-7.42655063 6.13275314 -7.1385485 5.1385485 -5 3 C-4.505 2.46375 -4.01 1.9275 -3.5 1.375 C-2 0 -2 0 0 0 Z " fill="#9AAA91" transform="translate(711,337)"/>
<path d="M0 0 C0.33 0.66 0.66 1.32 1 2 C-0.4375 4.625 -0.4375 4.625 -2 7 C-2.99 6.34 -3.98 5.68 -5 5 C-3.35 3.35 -1.7 1.7 0 0 Z " fill="#9EAC92" transform="translate(1149,575)"/>
<path d="M0 0 C0.33 0.66 0.66 1.32 1 2 C1.99 2.33 2.98 2.66 4 3 C2.68 3.99 1.36 4.98 0 6 C0 5.34 0 4.68 0 4 C-0.99 4.33 -1.98 4.66 -3 5 C-1.125 1.125 -1.125 1.125 0 0 Z " fill="#181B13" transform="translate(1212,497)"/>
<path d="M0 0 C0.33 0.66 0.66 1.32 1 2 C-1.47812494 5.45167403 -2.79606135 7.23163306 -7 8 C-6.02133662 6.85373678 -5.04205413 5.70800212 -4.0625 4.5625 C-3.51722656 3.92441406 -2.97195313 3.28632813 -2.41015625 2.62890625 C-1.63204305 1.73008851 -0.84063472 0.84063472 0 0 Z " fill="#8D9B82" transform="translate(927,352)"/>
<path d="M0 0 C0.66 0.33 1.32 0.66 2 1 C-0.57784846 3.64752004 -2.91648098 5.94432065 -6 8 C-4.55746343 4.63408134 -2.66735273 2.48952921 0 0 Z " fill="#979592" transform="translate(48,349)"/>
<path d="M0 0 C0.66 0 1.32 0 2 0 C0.70700306 2.88437779 -0.65941363 4.87219421 -3 7 C-3.33 6.34 -3.66 5.68 -4 5 C-2.71937515 3.2925002 -1.38232443 1.62626404 0 0 Z " fill="#A09E98" transform="translate(53,343)"/>
<path d="M0 0 C0.99 0.33 1.98 0.66 3 1 C-0.465 3.97 -0.465 3.97 -4 7 C-3.04065919 3.16263678 -2.76390737 2.40339772 0 0 Z " fill="#98A68C" transform="translate(723,106)"/>
<path d="M0 0 C0.33 0.99 0.66 1.98 1 3 C-0.28965176 4.37562854 -1.62689293 5.70766393 -3 7 C-3.66 7 -4.32 7 -5 7 C-3.70700306 4.11562221 -2.34058637 2.12780579 0 0 Z " fill="#B3B0AB" transform="translate(942,560)"/>
<path d="M0 0 C0.99 0 1.98 0 3 0 C2.60196439 2.88575819 2.20990931 3.82189513 -0.0625 5.75 C-0.701875 6.1625 -1.34125 6.575 -2 7 C-1.34 4.69 -0.68 2.38 0 0 Z " fill="#9DAC92" transform="translate(948,542)"/>
<path d="M0 0 C0.33 1.32 0.66 2.64 1 4 C-0.65 5.32 -2.3 6.64 -4 8 C-4.66 7.67 -5.32 7.34 -6 7 C-4.02 4.69 -2.04 2.38 0 0 Z " fill="#8D9B82" transform="translate(945,331)"/>
<path d="M0 0 C0.66 0 1.32 0 2 0 C1.6875 1.875 1.6875 1.875 1 4 C0.01 4.66 -0.98 5.32 -2 6 C-2.66 5.34 -3.32 4.68 -4 4 C-2.68 3.34 -1.36 2.68 0 2 C0 1.34 0 0.68 0 0 Z " fill="#8D9D83" transform="translate(724,320)"/>
<path d="M0 0 C0.66 0 1.32 0 2 0 C1.64950425 3.24208567 1.43778819 4.61527704 -1.0625 6.8125 C-1.701875 7.204375 -2.34125 7.59625 -3 8 C-2.690625 7.236875 -2.38125 6.47375 -2.0625 5.6875 C-1.32106407 3.81210323 -0.63771783 1.91315348 0 0 Z " fill="#99A98F" transform="translate(731,311)"/>
<path d="M0 0 C0.33 0.66 0.66 1.32 1 2 C-0.65 3.98 -2.3 5.96 -4 8 C-4.33 7.01 -4.66 6.02 -5 5 C-3.35 3.35 -1.7 1.7 0 0 Z " fill="#ADACA6" transform="translate(275,117)"/>
</svg>
